<svg height="1854" width="720" xmlns="http://www.w3.org/2000/svg">
<rect height="1854" fill="#555" width="720"></rect>
<text fill="#7f7" font-family="Courier New" font-size="12" xml:space="preserve">
<tspan x="10" y="26">15 megabytes installed</tspan>
<tspan x="10" y="42"></tspan>
<tspan x="10" y="58">node_modules</tspan>
<tspan x="10" y="74">└─┬ markdown-styles@3.1.9 </tspan>
<tspan x="10" y="90">  ├─┬ handlebars@4.0.6 </tspan>
<tspan x="10" y="106">  │ ├── async@1.5.2 </tspan>
<tspan x="10" y="122">  │ ├─┬ optimist@0.6.1 </tspan>
<tspan x="10" y="138">  │ │ ├── minimist@0.0.10 </tspan>
<tspan x="10" y="154">  │ │ └── wordwrap@0.0.3 </tspan>
<tspan x="10" y="170">  │ ├─┬ source-map@0.4.4 </tspan>
<tspan x="10" y="186">  │ │ └── amdefine@1.0.1 </tspan>
<tspan x="10" y="202">  │ └─┬ uglify-js@2.8.22 </tspan>
<tspan x="10" y="218">  │   ├── source-map@0.5.6 </tspan>
<tspan x="10" y="234">  │   ├── uglify-to-browserify@1.0.2 </tspan>
<tspan x="10" y="250">  │   └─┬ yargs@3.10.0 </tspan>
<tspan x="10" y="266">  │     ├── camelcase@1.2.1 </tspan>
<tspan x="10" y="282">  │     ├─┬ cliui@2.1.0 </tspan>
<tspan x="10" y="298">  │     │ ├─┬ center-align@0.1.3 </tspan>
<tspan x="10" y="314">  │     │ │ ├─┬ align-text@0.1.4 </tspan>
<tspan x="10" y="330">  │     │ │ │ ├─┬ kind-of@3.1.0 </tspan>
<tspan x="10" y="346">  │     │ │ │ │ └── is-buffer@1.1.5 </tspan>
<tspan x="10" y="362">  │     │ │ │ ├── longest@1.0.1 </tspan>
<tspan x="10" y="378">  │     │ │ │ └── repeat-string@1.6.1 </tspan>
<tspan x="10" y="394">  │     │ │ └── lazy-cache@1.0.4 </tspan>
<tspan x="10" y="410">  │     │ ├── right-align@0.1.3 </tspan>
<tspan x="10" y="426">  │     │ └── wordwrap@0.0.2 </tspan>
<tspan x="10" y="442">  │     └── window-size@0.1.0 </tspan>
<tspan x="10" y="458">  ├─┬ markdown-stream-utils@1.5.0 </tspan>
<tspan x="10" y="474">  │ ├── highlight.js@9.9.0 </tspan>
<tspan x="10" y="490">  │ ├─┬ js-yaml@3.7.0 </tspan>
<tspan x="10" y="506">  │ │ ├─┬ argparse@1.0.9 </tspan>
<tspan x="10" y="522">  │ │ │ └── sprintf-js@1.0.3 </tspan>
<tspan x="10" y="538">  │ │ └── esprima@2.7.3 </tspan>
<tspan x="10" y="554">  │ ├── marked@0.3.6 </tspan>
<tspan x="10" y="570">  │ └─┬ through2@0.6.5 </tspan>
<tspan x="10" y="586">  │   └─┬ readable-stream@1.0.34 </tspan>
<tspan x="10" y="602">  │     └── isarray@0.0.1 </tspan>
<tspan x="10" y="618">  ├─┬ mkdirp@0.5.1 </tspan>
<tspan x="10" y="634">  │ └── minimist@0.0.8 </tspan>
<tspan x="10" y="650">  ├─┬ pipe-iterators@1.3.0 </tspan>
<tspan x="10" y="666">  │ ├── clone@1.0.2 </tspan>
<tspan x="10" y="682">  │ ├─┬ merge-stream@1.0.1 </tspan>
<tspan x="10" y="698">  │ │ └─┬ readable-stream@2.2.9 </tspan>
<tspan x="10" y="714">  │ │   ├── buffer-shims@1.0.0 </tspan>
<tspan x="10" y="730">  │ │   ├── isarray@1.0.0 </tspan>
<tspan x="10" y="746">  │ │   └── string_decoder@1.0.0 </tspan>
<tspan x="10" y="762">  │ ├─┬ miniq@1.0.1 </tspan>
<tspan x="10" y="778">  │ │ └── ondone@1.0.0 </tspan>
<tspan x="10" y="794">  │ ├─┬ readable-stream@2.0.6 </tspan>
<tspan x="10" y="810">  │ │ ├── core-util-is@1.0.2 </tspan>
<tspan x="10" y="826">  │ │ ├── inherits@2.0.3 </tspan>
<tspan x="10" y="842">  │ │ ├── isarray@1.0.0 </tspan>
<tspan x="10" y="858">  │ │ ├── process-nextick-args@1.0.7 </tspan>
<tspan x="10" y="874">  │ │ ├── string_decoder@0.10.31 </tspan>
<tspan x="10" y="890">  │ │ └── util-deprecate@1.0.2 </tspan>
<tspan x="10" y="906">  │ └─┬ through2@2.0.3 </tspan>
<tspan x="10" y="922">  │   └─┬ readable-stream@2.2.9 </tspan>
<tspan x="10" y="938">  │     └── string_decoder@1.0.0 </tspan>
<tspan x="10" y="954">  ├── resolve@1.2.1 </tspan>
<tspan x="10" y="970">  ├─┬ wildglob@0.1.1 </tspan>
<tspan x="10" y="986">  │ ├── glob-parse@0.0.1 </tspan>
<tspan x="10" y="1002">  │ ├── microee@0.0.6 </tspan>
<tspan x="10" y="1018">  │ ├─┬ minimatch@3.0.3 </tspan>
<tspan x="10" y="1034">  │ │ └─┬ brace-expansion@1.1.7 </tspan>
<tspan x="10" y="1050">  │ │   ├── balanced-match@0.4.2 </tspan>
<tspan x="10" y="1066">  │ │   └── concat-map@0.0.1 </tspan>
<tspan x="10" y="1082">  │ └── mm-brace-expand@0.0.1 </tspan>
<tspan x="10" y="1098">  ├── xtend@4.0.1 </tspan>
<tspan x="10" y="1114">  └─┬ yargs@6.6.0 </tspan>
<tspan x="10" y="1130">    ├── camelcase@3.0.0 </tspan>
<tspan x="10" y="1146">    ├─┬ cliui@3.2.0 </tspan>
<tspan x="10" y="1162">    │ └── wrap-ansi@2.1.0 </tspan>
<tspan x="10" y="1178">    ├── decamelize@1.2.0 </tspan>
<tspan x="10" y="1194">    ├── get-caller-file@1.0.2 </tspan>
<tspan x="10" y="1210">    ├─┬ os-locale@1.4.0 </tspan>
<tspan x="10" y="1226">    │ └─┬ lcid@1.0.0 </tspan>
<tspan x="10" y="1242">    │   └── invert-kv@1.0.0 </tspan>
<tspan x="10" y="1258">    ├─┬ read-pkg-up@1.0.1 </tspan>
<tspan x="10" y="1274">    │ ├─┬ find-up@1.1.2 </tspan>
<tspan x="10" y="1290">    │ │ ├── path-exists@2.1.0 </tspan>
<tspan x="10" y="1306">    │ │ └─┬ pinkie-promise@2.0.1 </tspan>
<tspan x="10" y="1322">    │ │   └── pinkie@2.0.4 </tspan>
<tspan x="10" y="1338">    │ └─┬ read-pkg@1.1.0 </tspan>
<tspan x="10" y="1354">    │   ├─┬ load-json-file@1.1.0 </tspan>
<tspan x="10" y="1370">    │   │ ├── graceful-fs@4.1.11 </tspan>
<tspan x="10" y="1386">    │   │ ├─┬ parse-json@2.2.0 </tspan>
<tspan x="10" y="1402">    │   │ │ └─┬ error-ex@1.3.1 </tspan>
<tspan x="10" y="1418">    │   │ │   └── is-arrayish@0.2.1 </tspan>
<tspan x="10" y="1434">    │   │ ├── pify@2.3.0 </tspan>
<tspan x="10" y="1450">    │   │ └─┬ strip-bom@2.0.0 </tspan>
<tspan x="10" y="1466">    │   │   └── is-utf8@0.2.1 </tspan>
<tspan x="10" y="1482">    │   ├─┬ normalize-package-data@2.3.6 </tspan>
<tspan x="10" y="1498">    │   │ ├── hosted-git-info@2.4.2 </tspan>
<tspan x="10" y="1514">    │   │ ├─┬ is-builtin-module@1.0.0 </tspan>
<tspan x="10" y="1530">    │   │ │ └── builtin-modules@1.1.1 </tspan>
<tspan x="10" y="1546">    │   │ ├── semver@5.3.0 </tspan>
<tspan x="10" y="1562">    │   │ └─┬ validate-npm-package-license@3.0.1 </tspan>
<tspan x="10" y="1578">    │   │   ├─┬ spdx-correct@1.0.2 </tspan>
<tspan x="10" y="1594">    │   │   │ └── spdx-license-ids@1.2.2 </tspan>
<tspan x="10" y="1610">    │   │   └── spdx-expression-parse@1.0.4 </tspan>
<tspan x="10" y="1626">    │   └── path-type@1.1.0 </tspan>
<tspan x="10" y="1642">    ├── require-directory@2.1.1 </tspan>
<tspan x="10" y="1658">    ├── require-main-filename@1.0.1 </tspan>
<tspan x="10" y="1674">    ├── set-blocking@2.0.0 </tspan>
<tspan x="10" y="1690">    ├─┬ string-width@1.0.2 </tspan>
<tspan x="10" y="1706">    │ ├── code-point-at@1.1.0 </tspan>
<tspan x="10" y="1722">    │ ├─┬ is-fullwidth-code-point@1.0.0 </tspan>
<tspan x="10" y="1738">    │ │ └── number-is-nan@1.0.1 </tspan>
<tspan x="10" y="1754">    │ └─┬ strip-ansi@3.0.1 </tspan>
<tspan x="10" y="1770">    │   └── ansi-regex@2.1.1 </tspan>
<tspan x="10" y="1786">    ├── which-module@1.0.0 </tspan>
<tspan x="10" y="1802">    ├── y18n@3.2.1 </tspan>
<tspan x="10" y="1818">    └─┬ yargs-parser@4.2.1 </tspan>
<tspan x="10" y="1834">      └── camelcase@3.0.0</tspan>
</text>
</svg>
